G04 #@! TF.FileFunction,Copper,L2,Bot,Signal*
%FSLAX46Y46*%
G04 Gerber Fmt 4.6, Leading zero omitted, Abs format (unit mm)*
G04 Created by KiCad (PCBNEW 4.0.2-stable) date Dimanche 03 juillet 2016 23:01:50*
%MOMM*%
G01*
G04 APERTURE LIST*
%ADD10C,0.100000*%
%ADD11R,1.500000X1.250000*%
%ADD12R,1.727200X1.727200*%
%ADD13O,1.727200X1.727200*%
%ADD14C,0.889000*%
%ADD15C,0.254000*%
G04 APERTURE END LIST*
D10*
D11*
X55250000Y-36400000D03*
X57750000Y-36400000D03*
X55250000Y-40300000D03*
X57750000Y-40300000D03*
X55250000Y-44200000D03*
X57750000Y-44200000D03*
D12*
X61100000Y-36300000D03*
D13*
X63640000Y-36300000D03*
X61100000Y-38840000D03*
X63640000Y-38840000D03*
X61100000Y-41380000D03*
X63640000Y-41380000D03*
X61100000Y-43920000D03*
X63640000Y-43920000D03*
D14*
X55250000Y-42105600D03*
X58284900Y-42040000D03*
D15*
X58948800Y-35393700D02*
X55250000Y-35393700D01*
X59855100Y-36300000D02*
X58948800Y-35393700D01*
X61100000Y-36300000D02*
X59855100Y-36300000D01*
X55250000Y-36400000D02*
X55250000Y-35393700D01*
X55250000Y-40300000D02*
X55250000Y-36400000D01*
X55250000Y-40300000D02*
X55250000Y-42105600D01*
X55250000Y-42105600D02*
X55250000Y-44200000D01*
X63640000Y-38840000D02*
X62395100Y-38840000D01*
X57750000Y-36400000D02*
X57750000Y-37406300D01*
X61617100Y-37595100D02*
X57938800Y-37595100D01*
X62395100Y-38373100D02*
X61617100Y-37595100D01*
X62395100Y-38840000D02*
X62395100Y-38373100D01*
X57938800Y-37595100D02*
X57750000Y-37406300D01*
X57938800Y-39104900D02*
X57938800Y-37595100D01*
X57750000Y-39293700D02*
X57938800Y-39104900D01*
X57750000Y-40300000D02*
X57750000Y-39293700D01*
X57380900Y-42824600D02*
X57750000Y-43193700D01*
X57380900Y-41675400D02*
X57380900Y-42824600D01*
X57750000Y-41306300D02*
X57380900Y-41675400D01*
X57750000Y-40300000D02*
X57750000Y-41306300D01*
X57750000Y-44200000D02*
X57750000Y-43193700D01*
X62395100Y-41895800D02*
X62395100Y-41380000D01*
X61665900Y-42625000D02*
X62395100Y-41895800D01*
X58869900Y-42625000D02*
X61665900Y-42625000D01*
X58284900Y-42040000D02*
X58869900Y-42625000D01*
X63640000Y-41380000D02*
X62395100Y-41380000D01*
M02*
