G04 #@! TF.FileFunction,Legend,Top*
%FSLAX46Y46*%
G04 Gerber Fmt 4.6, Leading zero omitted, Abs format (unit mm)*
G04 Created by KiCad (PCBNEW 4.0.2-stable) date Dimanche 03 juillet 2016 23:01:50*
%MOMM*%
G01*
G04 APERTURE LIST*
%ADD10C,0.100000*%
%ADD11C,0.125000*%
%ADD12C,0.150000*%
G04 APERTURE END LIST*
D10*
D11*
X53680954Y-40726190D02*
X53990477Y-40726190D01*
X53823811Y-40916667D01*
X53895239Y-40916667D01*
X53942858Y-40940476D01*
X53966668Y-40964286D01*
X53990477Y-41011905D01*
X53990477Y-41130952D01*
X53966668Y-41178571D01*
X53942858Y-41202381D01*
X53895239Y-41226190D01*
X53752382Y-41226190D01*
X53704763Y-41202381D01*
X53680954Y-41178571D01*
X54133334Y-40726190D02*
X54300001Y-41226190D01*
X54466667Y-40726190D01*
X54585715Y-40726190D02*
X54895238Y-40726190D01*
X54728572Y-40916667D01*
X54800000Y-40916667D01*
X54847619Y-40940476D01*
X54871429Y-40964286D01*
X54895238Y-41011905D01*
X54895238Y-41130952D01*
X54871429Y-41178571D01*
X54847619Y-41202381D01*
X54800000Y-41226190D01*
X54657143Y-41226190D01*
X54609524Y-41202381D01*
X54585715Y-41178571D01*
X53919047Y-31850000D02*
X53871428Y-31826190D01*
X53800000Y-31826190D01*
X53728571Y-31850000D01*
X53680952Y-31897619D01*
X53657143Y-31945238D01*
X53633333Y-32040476D01*
X53633333Y-32111905D01*
X53657143Y-32207143D01*
X53680952Y-32254762D01*
X53728571Y-32302381D01*
X53800000Y-32326190D01*
X53847619Y-32326190D01*
X53919047Y-32302381D01*
X53942857Y-32278571D01*
X53942857Y-32111905D01*
X53847619Y-32111905D01*
X54157143Y-32326190D02*
X54157143Y-31826190D01*
X54442857Y-32326190D01*
X54442857Y-31826190D01*
X54680953Y-32326190D02*
X54680953Y-31826190D01*
X54800000Y-31826190D01*
X54871429Y-31850000D01*
X54919048Y-31897619D01*
X54942857Y-31945238D01*
X54966667Y-32040476D01*
X54966667Y-32111905D01*
X54942857Y-32207143D01*
X54919048Y-32254762D01*
X54871429Y-32302381D01*
X54800000Y-32326190D01*
X54680953Y-32326190D01*
D10*
X53804763Y-42724286D02*
X53804763Y-43048095D01*
X53785715Y-43086190D01*
X53766667Y-43105238D01*
X53728572Y-43124286D01*
X53671429Y-43124286D01*
X53633334Y-43105238D01*
X53804763Y-42971905D02*
X53766667Y-42990952D01*
X53690477Y-42990952D01*
X53652382Y-42971905D01*
X53633334Y-42952857D01*
X53614286Y-42914762D01*
X53614286Y-42800476D01*
X53633334Y-42762381D01*
X53652382Y-42743333D01*
X53690477Y-42724286D01*
X53766667Y-42724286D01*
X53804763Y-42743333D01*
X53995239Y-42990952D02*
X53995239Y-42724286D01*
X53995239Y-42590952D02*
X53976191Y-42610000D01*
X53995239Y-42629048D01*
X54014287Y-42610000D01*
X53995239Y-42590952D01*
X53995239Y-42629048D01*
X54128572Y-42724286D02*
X54280953Y-42724286D01*
X54185715Y-42590952D02*
X54185715Y-42933810D01*
X54204763Y-42971905D01*
X54242858Y-42990952D01*
X54280953Y-42990952D01*
X54414286Y-42990952D02*
X54414286Y-42590952D01*
X54585715Y-42990952D02*
X54585715Y-42781429D01*
X54566667Y-42743333D01*
X54528572Y-42724286D01*
X54471429Y-42724286D01*
X54433334Y-42743333D01*
X54414286Y-42762381D01*
X54947620Y-42724286D02*
X54947620Y-42990952D01*
X54776191Y-42724286D02*
X54776191Y-42933810D01*
X54795239Y-42971905D01*
X54833334Y-42990952D01*
X54890477Y-42990952D01*
X54928572Y-42971905D01*
X54947620Y-42952857D01*
X55138096Y-42990952D02*
X55138096Y-42590952D01*
X55138096Y-42743333D02*
X55176191Y-42724286D01*
X55252382Y-42724286D01*
X55290477Y-42743333D01*
X55309525Y-42762381D01*
X55328572Y-42800476D01*
X55328572Y-42914762D01*
X55309525Y-42952857D01*
X55290477Y-42971905D01*
X55252382Y-42990952D01*
X55176191Y-42990952D01*
X55138096Y-42971905D01*
X55500001Y-42952857D02*
X55519049Y-42971905D01*
X55500001Y-42990952D01*
X55480953Y-42971905D01*
X55500001Y-42952857D01*
X55500001Y-42990952D01*
X55861906Y-42971905D02*
X55823810Y-42990952D01*
X55747620Y-42990952D01*
X55709525Y-42971905D01*
X55690477Y-42952857D01*
X55671429Y-42914762D01*
X55671429Y-42800476D01*
X55690477Y-42762381D01*
X55709525Y-42743333D01*
X55747620Y-42724286D01*
X55823810Y-42724286D01*
X55861906Y-42743333D01*
X56090477Y-42990952D02*
X56052382Y-42971905D01*
X56033334Y-42952857D01*
X56014286Y-42914762D01*
X56014286Y-42800476D01*
X56033334Y-42762381D01*
X56052382Y-42743333D01*
X56090477Y-42724286D01*
X56147620Y-42724286D01*
X56185715Y-42743333D01*
X56204763Y-42762381D01*
X56223810Y-42800476D01*
X56223810Y-42914762D01*
X56204763Y-42952857D01*
X56185715Y-42971905D01*
X56147620Y-42990952D01*
X56090477Y-42990952D01*
X56395239Y-42990952D02*
X56395239Y-42724286D01*
X56395239Y-42762381D02*
X56414287Y-42743333D01*
X56452382Y-42724286D01*
X56509525Y-42724286D01*
X56547620Y-42743333D01*
X56566668Y-42781429D01*
X56566668Y-42990952D01*
X56566668Y-42781429D02*
X56585715Y-42743333D01*
X56623811Y-42724286D01*
X56680953Y-42724286D01*
X56719049Y-42743333D01*
X56738096Y-42781429D01*
X56738096Y-42990952D01*
X57214286Y-42571905D02*
X56871429Y-43086190D01*
X57500001Y-42971905D02*
X57461906Y-42990952D01*
X57385715Y-42990952D01*
X57347620Y-42971905D01*
X57328572Y-42933810D01*
X57328572Y-42781429D01*
X57347620Y-42743333D01*
X57385715Y-42724286D01*
X57461906Y-42724286D01*
X57500001Y-42743333D01*
X57519049Y-42781429D01*
X57519049Y-42819524D01*
X57328572Y-42857619D01*
X57690477Y-42990952D02*
X57690477Y-42724286D01*
X57690477Y-42762381D02*
X57709525Y-42743333D01*
X57747620Y-42724286D01*
X57804763Y-42724286D01*
X57842858Y-42743333D01*
X57861906Y-42781429D01*
X57861906Y-42990952D01*
X57861906Y-42781429D02*
X57880953Y-42743333D01*
X57919049Y-42724286D01*
X57976191Y-42724286D01*
X58014287Y-42743333D01*
X58033334Y-42781429D01*
X58033334Y-42990952D01*
X58395239Y-42971905D02*
X58357143Y-42990952D01*
X58280953Y-42990952D01*
X58242858Y-42971905D01*
X58223810Y-42952857D01*
X58204762Y-42914762D01*
X58204762Y-42800476D01*
X58223810Y-42762381D01*
X58242858Y-42743333D01*
X58280953Y-42724286D01*
X58357143Y-42724286D01*
X58395239Y-42743333D01*
X58547619Y-42629048D02*
X58566667Y-42610000D01*
X58604762Y-42590952D01*
X58700000Y-42590952D01*
X58738096Y-42610000D01*
X58757143Y-42629048D01*
X58776191Y-42667143D01*
X58776191Y-42705238D01*
X58757143Y-42762381D01*
X58528572Y-42990952D01*
X58776191Y-42990952D01*
X59119048Y-42971905D02*
X59080952Y-42990952D01*
X59004762Y-42990952D01*
X58966667Y-42971905D01*
X58947619Y-42952857D01*
X58928571Y-42914762D01*
X58928571Y-42800476D01*
X58947619Y-42762381D01*
X58966667Y-42743333D01*
X59004762Y-42724286D01*
X59080952Y-42724286D01*
X59119048Y-42743333D01*
X59461905Y-42724286D02*
X59461905Y-42990952D01*
X59290476Y-42724286D02*
X59290476Y-42933810D01*
X59309524Y-42971905D01*
X59347619Y-42990952D01*
X59404762Y-42990952D01*
X59442857Y-42971905D01*
X59461905Y-42952857D01*
X59652381Y-42990952D02*
X59652381Y-42590952D01*
X59652381Y-42743333D02*
X59690476Y-42724286D01*
X59766667Y-42724286D01*
X59804762Y-42743333D01*
X59823810Y-42762381D01*
X59842857Y-42800476D01*
X59842857Y-42914762D01*
X59823810Y-42952857D01*
X59804762Y-42971905D01*
X59766667Y-42990952D01*
X59690476Y-42990952D01*
X59652381Y-42971905D01*
X60166667Y-42971905D02*
X60128572Y-42990952D01*
X60052381Y-42990952D01*
X60014286Y-42971905D01*
X59995238Y-42933810D01*
X59995238Y-42781429D01*
X60014286Y-42743333D01*
X60052381Y-42724286D01*
X60128572Y-42724286D01*
X60166667Y-42743333D01*
X60185715Y-42781429D01*
X60185715Y-42819524D01*
X59995238Y-42857619D01*
X54395238Y-44310952D02*
X54395238Y-43910952D01*
X54528571Y-44196667D01*
X54661905Y-43910952D01*
X54661905Y-44310952D01*
X54814286Y-44044286D02*
X54909524Y-44310952D01*
X55004762Y-44044286D02*
X54909524Y-44310952D01*
X54871429Y-44406190D01*
X54852381Y-44425238D01*
X54814286Y-44444286D01*
X55138095Y-44291905D02*
X55195238Y-44310952D01*
X55290476Y-44310952D01*
X55328572Y-44291905D01*
X55347619Y-44272857D01*
X55366667Y-44234762D01*
X55366667Y-44196667D01*
X55347619Y-44158571D01*
X55328572Y-44139524D01*
X55290476Y-44120476D01*
X55214286Y-44101429D01*
X55176191Y-44082381D01*
X55157143Y-44063333D01*
X55138095Y-44025238D01*
X55138095Y-43987143D01*
X55157143Y-43949048D01*
X55176191Y-43930000D01*
X55214286Y-43910952D01*
X55309524Y-43910952D01*
X55366667Y-43930000D01*
X55766667Y-44310952D02*
X55633333Y-44120476D01*
X55538095Y-44310952D02*
X55538095Y-43910952D01*
X55690476Y-43910952D01*
X55728571Y-43930000D01*
X55747619Y-43949048D01*
X55766667Y-43987143D01*
X55766667Y-44044286D01*
X55747619Y-44082381D01*
X55728571Y-44101429D01*
X55690476Y-44120476D01*
X55538095Y-44120476D01*
X56109524Y-44310952D02*
X56109524Y-44101429D01*
X56090476Y-44063333D01*
X56052381Y-44044286D01*
X55976190Y-44044286D01*
X55938095Y-44063333D01*
X56109524Y-44291905D02*
X56071428Y-44310952D01*
X55976190Y-44310952D01*
X55938095Y-44291905D01*
X55919047Y-44253810D01*
X55919047Y-44215714D01*
X55938095Y-44177619D01*
X55976190Y-44158571D01*
X56071428Y-44158571D01*
X56109524Y-44139524D01*
X56280952Y-44291905D02*
X56319048Y-44310952D01*
X56395238Y-44310952D01*
X56433333Y-44291905D01*
X56452381Y-44253810D01*
X56452381Y-44234762D01*
X56433333Y-44196667D01*
X56395238Y-44177619D01*
X56338095Y-44177619D01*
X56300000Y-44158571D01*
X56280952Y-44120476D01*
X56280952Y-44101429D01*
X56300000Y-44063333D01*
X56338095Y-44044286D01*
X56395238Y-44044286D01*
X56433333Y-44063333D01*
X56623810Y-44044286D02*
X56623810Y-44444286D01*
X56623810Y-44063333D02*
X56661905Y-44044286D01*
X56738096Y-44044286D01*
X56776191Y-44063333D01*
X56795239Y-44082381D01*
X56814286Y-44120476D01*
X56814286Y-44234762D01*
X56795239Y-44272857D01*
X56776191Y-44291905D01*
X56738096Y-44310952D01*
X56661905Y-44310952D01*
X56623810Y-44291905D01*
X56985715Y-44310952D02*
X56985715Y-44044286D01*
X56985715Y-43910952D02*
X56966667Y-43930000D01*
X56985715Y-43949048D01*
X57004763Y-43930000D01*
X56985715Y-43910952D01*
X56985715Y-43949048D01*
X57385715Y-43930000D02*
X57347620Y-43910952D01*
X57290477Y-43910952D01*
X57233334Y-43930000D01*
X57195239Y-43968095D01*
X57176191Y-44006190D01*
X57157143Y-44082381D01*
X57157143Y-44139524D01*
X57176191Y-44215714D01*
X57195239Y-44253810D01*
X57233334Y-44291905D01*
X57290477Y-44310952D01*
X57328572Y-44310952D01*
X57385715Y-44291905D01*
X57404763Y-44272857D01*
X57404763Y-44139524D01*
X57328572Y-44139524D01*
X57538096Y-43910952D02*
X57633334Y-44310952D01*
X57709524Y-44025238D01*
X57785715Y-44310952D01*
X57880953Y-43910952D01*
X58300001Y-44044286D02*
X58395239Y-44310952D01*
X58490477Y-44044286D01*
X58852382Y-44310952D02*
X58623810Y-44310952D01*
X58738096Y-44310952D02*
X58738096Y-43910952D01*
X58700001Y-43968095D01*
X58661906Y-44006190D01*
X58623810Y-44025238D01*
X59023810Y-44272857D02*
X59042858Y-44291905D01*
X59023810Y-44310952D01*
X59004762Y-44291905D01*
X59023810Y-44272857D01*
X59023810Y-44310952D01*
X59290477Y-43910952D02*
X59328572Y-43910952D01*
X59366667Y-43930000D01*
X59385715Y-43949048D01*
X59404762Y-43987143D01*
X59423810Y-44063333D01*
X59423810Y-44158571D01*
X59404762Y-44234762D01*
X59385715Y-44272857D01*
X59366667Y-44291905D01*
X59328572Y-44310952D01*
X59290477Y-44310952D01*
X59252381Y-44291905D01*
X59233334Y-44272857D01*
X59214286Y-44234762D01*
X59195238Y-44158571D01*
X59195238Y-44063333D01*
X59214286Y-43987143D01*
X59233334Y-43949048D01*
X59252381Y-43930000D01*
X59290477Y-43910952D01*
X53766666Y-44970952D02*
X53766666Y-44570952D01*
X53919047Y-44570952D01*
X53957142Y-44590000D01*
X53976190Y-44609048D01*
X53995238Y-44647143D01*
X53995238Y-44704286D01*
X53976190Y-44742381D01*
X53957142Y-44761429D01*
X53919047Y-44780476D01*
X53766666Y-44780476D01*
X54166666Y-44970952D02*
X54166666Y-44704286D01*
X54166666Y-44570952D02*
X54147618Y-44590000D01*
X54166666Y-44609048D01*
X54185714Y-44590000D01*
X54166666Y-44570952D01*
X54166666Y-44609048D01*
X54357142Y-44970952D02*
X54357142Y-44704286D01*
X54357142Y-44742381D02*
X54376190Y-44723333D01*
X54414285Y-44704286D01*
X54471428Y-44704286D01*
X54509523Y-44723333D01*
X54528571Y-44761429D01*
X54528571Y-44970952D01*
X54528571Y-44761429D02*
X54547618Y-44723333D01*
X54585714Y-44704286D01*
X54642856Y-44704286D01*
X54680952Y-44723333D01*
X54699999Y-44761429D01*
X54699999Y-44970952D01*
X54947618Y-44970952D02*
X54909523Y-44951905D01*
X54890475Y-44932857D01*
X54871427Y-44894762D01*
X54871427Y-44780476D01*
X54890475Y-44742381D01*
X54909523Y-44723333D01*
X54947618Y-44704286D01*
X55004761Y-44704286D01*
X55042856Y-44723333D01*
X55061904Y-44742381D01*
X55080951Y-44780476D01*
X55080951Y-44894762D01*
X55061904Y-44932857D01*
X55042856Y-44951905D01*
X55004761Y-44970952D01*
X54947618Y-44970952D01*
X55252380Y-44970952D02*
X55252380Y-44704286D01*
X55252380Y-44780476D02*
X55271428Y-44742381D01*
X55290475Y-44723333D01*
X55328571Y-44704286D01*
X55366666Y-44704286D01*
X55557142Y-44970952D02*
X55519047Y-44951905D01*
X55499999Y-44932857D01*
X55480951Y-44894762D01*
X55480951Y-44780476D01*
X55499999Y-44742381D01*
X55519047Y-44723333D01*
X55557142Y-44704286D01*
X55614285Y-44704286D01*
X55652380Y-44723333D01*
X55671428Y-44742381D01*
X55690475Y-44780476D01*
X55690475Y-44894762D01*
X55671428Y-44932857D01*
X55652380Y-44951905D01*
X55614285Y-44970952D01*
X55557142Y-44970952D01*
X55861904Y-44704286D02*
X55861904Y-44970952D01*
X55861904Y-44742381D02*
X55880952Y-44723333D01*
X55919047Y-44704286D01*
X55976190Y-44704286D01*
X56014285Y-44723333D01*
X56033333Y-44761429D01*
X56033333Y-44970952D01*
X56223809Y-44970952D02*
X56223809Y-44704286D01*
X56223809Y-44570952D02*
X56204761Y-44590000D01*
X56223809Y-44609048D01*
X56242857Y-44590000D01*
X56223809Y-44570952D01*
X56223809Y-44609048D01*
X56890476Y-44951905D02*
X56852380Y-44970952D01*
X56776190Y-44970952D01*
X56738095Y-44951905D01*
X56719047Y-44932857D01*
X56699999Y-44894762D01*
X56699999Y-44780476D01*
X56719047Y-44742381D01*
X56738095Y-44723333D01*
X56776190Y-44704286D01*
X56852380Y-44704286D01*
X56890476Y-44723333D01*
X57233333Y-44970952D02*
X57233333Y-44761429D01*
X57214285Y-44723333D01*
X57176190Y-44704286D01*
X57099999Y-44704286D01*
X57061904Y-44723333D01*
X57233333Y-44951905D02*
X57195237Y-44970952D01*
X57099999Y-44970952D01*
X57061904Y-44951905D01*
X57042856Y-44913810D01*
X57042856Y-44875714D01*
X57061904Y-44837619D01*
X57099999Y-44818571D01*
X57195237Y-44818571D01*
X57233333Y-44799524D01*
X57404761Y-44951905D02*
X57442857Y-44970952D01*
X57519047Y-44970952D01*
X57557142Y-44951905D01*
X57576190Y-44913810D01*
X57576190Y-44894762D01*
X57557142Y-44856667D01*
X57519047Y-44837619D01*
X57461904Y-44837619D01*
X57423809Y-44818571D01*
X57404761Y-44780476D01*
X57404761Y-44761429D01*
X57423809Y-44723333D01*
X57461904Y-44704286D01*
X57519047Y-44704286D01*
X57557142Y-44723333D01*
X57900000Y-44951905D02*
X57861905Y-44970952D01*
X57785714Y-44970952D01*
X57747619Y-44951905D01*
X57728571Y-44913810D01*
X57728571Y-44761429D01*
X57747619Y-44723333D01*
X57785714Y-44704286D01*
X57861905Y-44704286D01*
X57900000Y-44723333D01*
X57919048Y-44761429D01*
X57919048Y-44799524D01*
X57728571Y-44837619D01*
X58509524Y-45123333D02*
X58490476Y-45104286D01*
X58452381Y-45047143D01*
X58433333Y-45009048D01*
X58414286Y-44951905D01*
X58395238Y-44856667D01*
X58395238Y-44780476D01*
X58414286Y-44685238D01*
X58433333Y-44628095D01*
X58452381Y-44590000D01*
X58490476Y-44532857D01*
X58509524Y-44513810D01*
X58661905Y-44970952D02*
X58661905Y-44570952D01*
X58814286Y-44570952D01*
X58852381Y-44590000D01*
X58871429Y-44609048D01*
X58890477Y-44647143D01*
X58890477Y-44704286D01*
X58871429Y-44742381D01*
X58852381Y-44761429D01*
X58814286Y-44780476D01*
X58661905Y-44780476D01*
X59061905Y-44970952D02*
X59061905Y-44704286D01*
X59061905Y-44570952D02*
X59042857Y-44590000D01*
X59061905Y-44609048D01*
X59080953Y-44590000D01*
X59061905Y-44570952D01*
X59061905Y-44609048D01*
X59690476Y-44761429D02*
X59747619Y-44780476D01*
X59766667Y-44799524D01*
X59785715Y-44837619D01*
X59785715Y-44894762D01*
X59766667Y-44932857D01*
X59747619Y-44951905D01*
X59709524Y-44970952D01*
X59557143Y-44970952D01*
X59557143Y-44570952D01*
X59690476Y-44570952D01*
X59728572Y-44590000D01*
X59747619Y-44609048D01*
X59766667Y-44647143D01*
X59766667Y-44685238D01*
X59747619Y-44723333D01*
X59728572Y-44742381D01*
X59690476Y-44761429D01*
X59557143Y-44761429D01*
X59919048Y-45123333D02*
X59938095Y-45104286D01*
X59976191Y-45047143D01*
X59995238Y-45009048D01*
X60014286Y-44951905D01*
X60033334Y-44856667D01*
X60033334Y-44780476D01*
X60014286Y-44685238D01*
X59995238Y-44628095D01*
X59976191Y-44590000D01*
X59938095Y-44532857D01*
X59919048Y-44513810D01*
D12*
X54028571Y-34285714D02*
X54628571Y-34285714D01*
X54028571Y-34628571D01*
X54628571Y-34628571D01*
X54028571Y-35257142D02*
X54314286Y-35057142D01*
X54028571Y-34914285D02*
X54628571Y-34914285D01*
X54628571Y-35142857D01*
X54600000Y-35199999D01*
X54571429Y-35228571D01*
X54514286Y-35257142D01*
X54428571Y-35257142D01*
X54371429Y-35228571D01*
X54342857Y-35199999D01*
X54314286Y-35142857D01*
X54314286Y-34914285D01*
X54342857Y-35714285D02*
X54342857Y-35514285D01*
X54028571Y-35514285D02*
X54628571Y-35514285D01*
X54628571Y-35799999D01*
X54571429Y-36000000D02*
X54600000Y-36028571D01*
X54628571Y-36085714D01*
X54628571Y-36228571D01*
X54600000Y-36285714D01*
X54571429Y-36314285D01*
X54514286Y-36342857D01*
X54457143Y-36342857D01*
X54371429Y-36314285D01*
X54028571Y-35971428D01*
X54028571Y-36342857D01*
X54428571Y-36857143D02*
X54028571Y-36857143D01*
X54657143Y-36714286D02*
X54228571Y-36571429D01*
X54228571Y-36942857D01*
X54028571Y-37457143D02*
X54028571Y-37171429D01*
X54628571Y-37171429D01*
X54628571Y-37771429D02*
X54628571Y-37828572D01*
X54600000Y-37885715D01*
X54571429Y-37914286D01*
X54514286Y-37942857D01*
X54400000Y-37971429D01*
X54257143Y-37971429D01*
X54142857Y-37942857D01*
X54085714Y-37914286D01*
X54057143Y-37885715D01*
X54028571Y-37828572D01*
X54028571Y-37771429D01*
X54057143Y-37714286D01*
X54085714Y-37685715D01*
X54142857Y-37657143D01*
X54257143Y-37628572D01*
X54400000Y-37628572D01*
X54514286Y-37657143D01*
X54571429Y-37685715D01*
X54600000Y-37714286D01*
X54628571Y-37771429D01*
X54028571Y-38542858D02*
X54028571Y-38200001D01*
X54028571Y-38371429D02*
X54628571Y-38371429D01*
X54542857Y-38314286D01*
X54485714Y-38257144D01*
X54457143Y-38200001D01*
D11*
X63435714Y-35071429D02*
X63092857Y-35071429D01*
X63264285Y-35071429D02*
X63264285Y-34471429D01*
X63207142Y-34557143D01*
X63150000Y-34614286D01*
X63092857Y-34642857D01*
X63778571Y-34728571D02*
X63721429Y-34700000D01*
X63692857Y-34671429D01*
X63664286Y-34614286D01*
X63664286Y-34585714D01*
X63692857Y-34528571D01*
X63721429Y-34500000D01*
X63778571Y-34471429D01*
X63892857Y-34471429D01*
X63950000Y-34500000D01*
X63978571Y-34528571D01*
X64007143Y-34585714D01*
X64007143Y-34614286D01*
X63978571Y-34671429D01*
X63950000Y-34700000D01*
X63892857Y-34728571D01*
X63778571Y-34728571D01*
X63721429Y-34757143D01*
X63692857Y-34785714D01*
X63664286Y-34842857D01*
X63664286Y-34957143D01*
X63692857Y-35014286D01*
X63721429Y-35042857D01*
X63778571Y-35071429D01*
X63892857Y-35071429D01*
X63950000Y-35042857D01*
X63978571Y-35014286D01*
X64007143Y-34957143D01*
X64007143Y-34842857D01*
X63978571Y-34785714D01*
X63950000Y-34757143D01*
X63892857Y-34728571D01*
X60935714Y-35071429D02*
X60592857Y-35071429D01*
X60764285Y-35071429D02*
X60764285Y-34471429D01*
X60707142Y-34557143D01*
X60650000Y-34614286D01*
X60592857Y-34642857D01*
X61135714Y-34471429D02*
X61535714Y-34471429D01*
X61278571Y-35071429D01*
X60642857Y-45278571D02*
X60671428Y-45250000D01*
X60728571Y-45221429D01*
X60871428Y-45221429D01*
X60928571Y-45250000D01*
X60957142Y-45278571D01*
X60985714Y-45335714D01*
X60985714Y-45392857D01*
X60957142Y-45478571D01*
X60614285Y-45821429D01*
X60985714Y-45821429D01*
X61185714Y-45221429D02*
X61557143Y-45221429D01*
X61357143Y-45450000D01*
X61442857Y-45450000D01*
X61500000Y-45478571D01*
X61528571Y-45507143D01*
X61557143Y-45564286D01*
X61557143Y-45707143D01*
X61528571Y-45764286D01*
X61500000Y-45792857D01*
X61442857Y-45821429D01*
X61271429Y-45821429D01*
X61214286Y-45792857D01*
X61185714Y-45764286D01*
X63192857Y-45278571D02*
X63221428Y-45250000D01*
X63278571Y-45221429D01*
X63421428Y-45221429D01*
X63478571Y-45250000D01*
X63507142Y-45278571D01*
X63535714Y-45335714D01*
X63535714Y-45392857D01*
X63507142Y-45478571D01*
X63164285Y-45821429D01*
X63535714Y-45821429D01*
X64050000Y-45421429D02*
X64050000Y-45821429D01*
X63907143Y-45192857D02*
X63764286Y-45621429D01*
X64135714Y-45621429D01*
D12*
X42952381Y-37261905D02*
X43761905Y-37261905D01*
X43857143Y-37214286D01*
X43904762Y-37166667D01*
X43952381Y-37071429D01*
X43952381Y-36880952D01*
X43904762Y-36785714D01*
X43857143Y-36738095D01*
X43761905Y-36690476D01*
X42952381Y-36690476D01*
X43952381Y-35690476D02*
X43952381Y-36261905D01*
X43952381Y-35976191D02*
X42952381Y-35976191D01*
X43095238Y-36071429D01*
X43190476Y-36166667D01*
X43238095Y-36261905D01*
M02*
