G04 #@! TF.FileFunction,Copper,L1,Top,Signal*
%FSLAX46Y46*%
G04 Gerber Fmt 4.6, Leading zero omitted, Abs format (unit mm)*
G04 Created by KiCad (PCBNEW 4.0.2-stable) date Dimanche 03 juillet 2016 23:01:50*
%MOMM*%
G01*
G04 APERTURE LIST*
%ADD10C,0.100000*%
%ADD11R,1.727200X1.727200*%
%ADD12O,1.727200X1.727200*%
%ADD13R,2.000000X1.000000*%
%ADD14C,0.889000*%
%ADD15C,0.254000*%
G04 APERTURE END LIST*
D10*
D11*
X61100000Y-36300000D03*
D12*
X63640000Y-36300000D03*
X61100000Y-38840000D03*
X63640000Y-38840000D03*
X61100000Y-41380000D03*
X63640000Y-41380000D03*
X61100000Y-43920000D03*
X63640000Y-43920000D03*
D13*
X56450000Y-40900000D03*
X56450000Y-39630000D03*
X56450000Y-38360000D03*
X56450000Y-37090000D03*
X56450000Y-35820000D03*
X56450000Y-34550000D03*
X56450000Y-33280000D03*
X56450000Y-32010000D03*
D14*
X55250000Y-42105600D03*
X58284900Y-42040000D03*
D15*
X56450000Y-40900000D02*
X55068700Y-40900000D01*
X55068700Y-41924300D02*
X55250000Y-42105600D01*
X55068700Y-40900000D02*
X55068700Y-41924300D01*
X57831300Y-32986400D02*
X57831300Y-32010000D01*
X59646400Y-34801500D02*
X57831300Y-32986400D01*
X61877100Y-34801500D02*
X59646400Y-34801500D01*
X62395100Y-35319500D02*
X61877100Y-34801500D01*
X62395100Y-36817100D02*
X62395100Y-35319500D01*
X63173100Y-37595100D02*
X62395100Y-36817100D01*
X63640000Y-37595100D02*
X63173100Y-37595100D01*
X63640000Y-38840000D02*
X63640000Y-37595100D01*
X56450000Y-32010000D02*
X57831300Y-32010000D01*
X60576200Y-38840000D02*
X61100000Y-38840000D01*
X57831300Y-36095100D02*
X60576200Y-38840000D01*
X57831300Y-35820000D02*
X57831300Y-36095100D01*
X56450000Y-35820000D02*
X57831300Y-35820000D01*
X61615800Y-40135100D02*
X61100000Y-40135100D01*
X62370000Y-39380900D02*
X61615800Y-40135100D01*
X62370000Y-38274500D02*
X62370000Y-39380900D01*
X61665500Y-37570000D02*
X62370000Y-38274500D01*
X60098100Y-37570000D02*
X61665500Y-37570000D01*
X59412300Y-36884200D02*
X60098100Y-37570000D01*
X59412300Y-36131000D02*
X59412300Y-36884200D01*
X57831300Y-34550000D02*
X59412300Y-36131000D01*
X56450000Y-34550000D02*
X57831300Y-34550000D01*
X61100000Y-41380000D02*
X61100000Y-40135100D01*
X57831300Y-41586400D02*
X58284900Y-42040000D01*
X57831300Y-39630000D02*
X57831300Y-41586400D01*
X56450000Y-39630000D02*
X57831300Y-39630000D01*
X59855100Y-39113800D02*
X57831300Y-37090000D01*
X59855100Y-41897100D02*
X59855100Y-39113800D01*
X60633100Y-42675100D02*
X59855100Y-41897100D01*
X61100000Y-42675100D02*
X60633100Y-42675100D01*
X61100000Y-43920000D02*
X61100000Y-42675100D01*
X56450000Y-37090000D02*
X57831300Y-37090000D01*
X56450000Y-38360000D02*
X57831300Y-38360000D01*
X63640000Y-43920000D02*
X62395100Y-43920000D01*
X59188900Y-39717600D02*
X57831300Y-38360000D01*
X59188900Y-43769900D02*
X59188900Y-39717600D01*
X60601100Y-45182100D02*
X59188900Y-43769900D01*
X61648800Y-45182100D02*
X60601100Y-45182100D01*
X62395100Y-44435800D02*
X61648800Y-45182100D01*
X62395100Y-43920000D02*
X62395100Y-44435800D01*
M02*
