G04 #@! TF.FileFunction,Legend,Top*
%FSLAX46Y46*%
G04 Gerber Fmt 4.6, Leading zero omitted, Abs format (unit mm)*
G04 Created by KiCad (PCBNEW 4.0.2-stable) date Lundi 30 mai 2016 16:07:32*
%MOMM*%
G01*
G04 APERTURE LIST*
%ADD10C,0.100000*%
%ADD11C,0.125000*%
%ADD12C,0.080000*%
%ADD13C,0.150000*%
G04 APERTURE END LIST*
D10*
D11*
X53880954Y-39926190D02*
X54190477Y-39926190D01*
X54023811Y-40116667D01*
X54095239Y-40116667D01*
X54142858Y-40140476D01*
X54166668Y-40164286D01*
X54190477Y-40211905D01*
X54190477Y-40330952D01*
X54166668Y-40378571D01*
X54142858Y-40402381D01*
X54095239Y-40426190D01*
X53952382Y-40426190D01*
X53904763Y-40402381D01*
X53880954Y-40378571D01*
X54333334Y-39926190D02*
X54500001Y-40426190D01*
X54666667Y-39926190D01*
X54785715Y-39926190D02*
X55095238Y-39926190D01*
X54928572Y-40116667D01*
X55000000Y-40116667D01*
X55047619Y-40140476D01*
X55071429Y-40164286D01*
X55095238Y-40211905D01*
X55095238Y-40330952D01*
X55071429Y-40378571D01*
X55047619Y-40402381D01*
X55000000Y-40426190D01*
X54857143Y-40426190D01*
X54809524Y-40402381D01*
X54785715Y-40378571D01*
X53988096Y-31526190D02*
X53988096Y-31026190D01*
X54511905Y-31526190D02*
X54345238Y-31288095D01*
X54226191Y-31526190D02*
X54226191Y-31026190D01*
X54416667Y-31026190D01*
X54464286Y-31050000D01*
X54488095Y-31073810D01*
X54511905Y-31121429D01*
X54511905Y-31192857D01*
X54488095Y-31240476D01*
X54464286Y-31264286D01*
X54416667Y-31288095D01*
X54226191Y-31288095D01*
X55059524Y-31573810D02*
X55011905Y-31550000D01*
X54964286Y-31502381D01*
X54892857Y-31430952D01*
X54845238Y-31407143D01*
X54797619Y-31407143D01*
X54821429Y-31526190D02*
X54773810Y-31502381D01*
X54726191Y-31454762D01*
X54702381Y-31359524D01*
X54702381Y-31192857D01*
X54726191Y-31097619D01*
X54773810Y-31050000D01*
X54821429Y-31026190D01*
X54916667Y-31026190D01*
X54964286Y-31050000D01*
X55011905Y-31097619D01*
X55035714Y-31192857D01*
X55035714Y-31359524D01*
X55011905Y-31454762D01*
X54964286Y-31502381D01*
X54916667Y-31526190D01*
X54821429Y-31526190D01*
D12*
X54191665Y-42870000D02*
X54191665Y-43153333D01*
X54174999Y-43186667D01*
X54158332Y-43203333D01*
X54124999Y-43220000D01*
X54074999Y-43220000D01*
X54041665Y-43203333D01*
X54191665Y-43086667D02*
X54158332Y-43103333D01*
X54091665Y-43103333D01*
X54058332Y-43086667D01*
X54041665Y-43070000D01*
X54024999Y-43036667D01*
X54024999Y-42936667D01*
X54041665Y-42903333D01*
X54058332Y-42886667D01*
X54091665Y-42870000D01*
X54158332Y-42870000D01*
X54191665Y-42886667D01*
X54358332Y-43103333D02*
X54358332Y-42870000D01*
X54358332Y-42753333D02*
X54341666Y-42770000D01*
X54358332Y-42786667D01*
X54374999Y-42770000D01*
X54358332Y-42753333D01*
X54358332Y-42786667D01*
X54474999Y-42870000D02*
X54608333Y-42870000D01*
X54524999Y-42753333D02*
X54524999Y-43053333D01*
X54541666Y-43086667D01*
X54574999Y-43103333D01*
X54608333Y-43103333D01*
X54724999Y-43103333D02*
X54724999Y-42753333D01*
X54874999Y-43103333D02*
X54874999Y-42920000D01*
X54858333Y-42886667D01*
X54824999Y-42870000D01*
X54774999Y-42870000D01*
X54741666Y-42886667D01*
X54724999Y-42903333D01*
X55191666Y-42870000D02*
X55191666Y-43103333D01*
X55041666Y-42870000D02*
X55041666Y-43053333D01*
X55058333Y-43086667D01*
X55091666Y-43103333D01*
X55141666Y-43103333D01*
X55175000Y-43086667D01*
X55191666Y-43070000D01*
X55358333Y-43103333D02*
X55358333Y-42753333D01*
X55358333Y-42886667D02*
X55391667Y-42870000D01*
X55458333Y-42870000D01*
X55491667Y-42886667D01*
X55508333Y-42903333D01*
X55525000Y-42936667D01*
X55525000Y-43036667D01*
X55508333Y-43070000D01*
X55491667Y-43086667D01*
X55458333Y-43103333D01*
X55391667Y-43103333D01*
X55358333Y-43086667D01*
X55675000Y-43070000D02*
X55691667Y-43086667D01*
X55675000Y-43103333D01*
X55658334Y-43086667D01*
X55675000Y-43070000D01*
X55675000Y-43103333D01*
X55991667Y-43086667D02*
X55958334Y-43103333D01*
X55891667Y-43103333D01*
X55858334Y-43086667D01*
X55841667Y-43070000D01*
X55825001Y-43036667D01*
X55825001Y-42936667D01*
X55841667Y-42903333D01*
X55858334Y-42886667D01*
X55891667Y-42870000D01*
X55958334Y-42870000D01*
X55991667Y-42886667D01*
X56191667Y-43103333D02*
X56158334Y-43086667D01*
X56141667Y-43070000D01*
X56125001Y-43036667D01*
X56125001Y-42936667D01*
X56141667Y-42903333D01*
X56158334Y-42886667D01*
X56191667Y-42870000D01*
X56241667Y-42870000D01*
X56275001Y-42886667D01*
X56291667Y-42903333D01*
X56308334Y-42936667D01*
X56308334Y-43036667D01*
X56291667Y-43070000D01*
X56275001Y-43086667D01*
X56241667Y-43103333D01*
X56191667Y-43103333D01*
X56458334Y-43103333D02*
X56458334Y-42870000D01*
X56458334Y-42903333D02*
X56475001Y-42886667D01*
X56508334Y-42870000D01*
X56558334Y-42870000D01*
X56591668Y-42886667D01*
X56608334Y-42920000D01*
X56608334Y-43103333D01*
X56608334Y-42920000D02*
X56625001Y-42886667D01*
X56658334Y-42870000D01*
X56708334Y-42870000D01*
X56741668Y-42886667D01*
X56758334Y-42920000D01*
X56758334Y-43103333D01*
X57175001Y-42736667D02*
X56875001Y-43186667D01*
X57425002Y-43086667D02*
X57391668Y-43103333D01*
X57325002Y-43103333D01*
X57291668Y-43086667D01*
X57275002Y-43053333D01*
X57275002Y-42920000D01*
X57291668Y-42886667D01*
X57325002Y-42870000D01*
X57391668Y-42870000D01*
X57425002Y-42886667D01*
X57441668Y-42920000D01*
X57441668Y-42953333D01*
X57275002Y-42986667D01*
X57591668Y-43103333D02*
X57591668Y-42870000D01*
X57591668Y-42903333D02*
X57608335Y-42886667D01*
X57641668Y-42870000D01*
X57691668Y-42870000D01*
X57725002Y-42886667D01*
X57741668Y-42920000D01*
X57741668Y-43103333D01*
X57741668Y-42920000D02*
X57758335Y-42886667D01*
X57791668Y-42870000D01*
X57841668Y-42870000D01*
X57875002Y-42886667D01*
X57891668Y-42920000D01*
X57891668Y-43103333D01*
X58208335Y-43086667D02*
X58175002Y-43103333D01*
X58108335Y-43103333D01*
X58075002Y-43086667D01*
X58058335Y-43070000D01*
X58041669Y-43036667D01*
X58041669Y-42936667D01*
X58058335Y-42903333D01*
X58075002Y-42886667D01*
X58108335Y-42870000D01*
X58175002Y-42870000D01*
X58208335Y-42886667D01*
X58341669Y-42786667D02*
X58358335Y-42770000D01*
X58391669Y-42753333D01*
X58475002Y-42753333D01*
X58508335Y-42770000D01*
X58525002Y-42786667D01*
X58541669Y-42820000D01*
X58541669Y-42853333D01*
X58525002Y-42903333D01*
X58325002Y-43103333D01*
X58541669Y-43103333D01*
X58841668Y-43086667D02*
X58808335Y-43103333D01*
X58741668Y-43103333D01*
X58708335Y-43086667D01*
X58691668Y-43070000D01*
X58675002Y-43036667D01*
X58675002Y-42936667D01*
X58691668Y-42903333D01*
X58708335Y-42886667D01*
X58741668Y-42870000D01*
X58808335Y-42870000D01*
X58841668Y-42886667D01*
X59141668Y-42870000D02*
X59141668Y-43103333D01*
X58991668Y-42870000D02*
X58991668Y-43053333D01*
X59008335Y-43086667D01*
X59041668Y-43103333D01*
X59091668Y-43103333D01*
X59125002Y-43086667D01*
X59141668Y-43070000D01*
X59308335Y-43103333D02*
X59308335Y-42753333D01*
X59308335Y-42886667D02*
X59341669Y-42870000D01*
X59408335Y-42870000D01*
X59441669Y-42886667D01*
X59458335Y-42903333D01*
X59475002Y-42936667D01*
X59475002Y-43036667D01*
X59458335Y-43070000D01*
X59441669Y-43086667D01*
X59408335Y-43103333D01*
X59341669Y-43103333D01*
X59308335Y-43086667D01*
X59758336Y-43086667D02*
X59725002Y-43103333D01*
X59658336Y-43103333D01*
X59625002Y-43086667D01*
X59608336Y-43053333D01*
X59608336Y-42920000D01*
X59625002Y-42886667D01*
X59658336Y-42870000D01*
X59725002Y-42870000D01*
X59758336Y-42886667D01*
X59775002Y-42920000D01*
X59775002Y-42953333D01*
X59608336Y-42986667D01*
X54708333Y-44243333D02*
X54708333Y-43893333D01*
X54825000Y-44143333D01*
X54941667Y-43893333D01*
X54941667Y-44243333D01*
X55075000Y-44010000D02*
X55158333Y-44243333D01*
X55241667Y-44010000D02*
X55158333Y-44243333D01*
X55125000Y-44326667D01*
X55108333Y-44343333D01*
X55075000Y-44360000D01*
X55358334Y-44226667D02*
X55408334Y-44243333D01*
X55491667Y-44243333D01*
X55525000Y-44226667D01*
X55541667Y-44210000D01*
X55558334Y-44176667D01*
X55558334Y-44143333D01*
X55541667Y-44110000D01*
X55525000Y-44093333D01*
X55491667Y-44076667D01*
X55425000Y-44060000D01*
X55391667Y-44043333D01*
X55375000Y-44026667D01*
X55358334Y-43993333D01*
X55358334Y-43960000D01*
X55375000Y-43926667D01*
X55391667Y-43910000D01*
X55425000Y-43893333D01*
X55508334Y-43893333D01*
X55558334Y-43910000D01*
X55908333Y-44243333D02*
X55791667Y-44076667D01*
X55708333Y-44243333D02*
X55708333Y-43893333D01*
X55841667Y-43893333D01*
X55875000Y-43910000D01*
X55891667Y-43926667D01*
X55908333Y-43960000D01*
X55908333Y-44010000D01*
X55891667Y-44043333D01*
X55875000Y-44060000D01*
X55841667Y-44076667D01*
X55708333Y-44076667D01*
X56208333Y-44243333D02*
X56208333Y-44060000D01*
X56191667Y-44026667D01*
X56158333Y-44010000D01*
X56091667Y-44010000D01*
X56058333Y-44026667D01*
X56208333Y-44226667D02*
X56175000Y-44243333D01*
X56091667Y-44243333D01*
X56058333Y-44226667D01*
X56041667Y-44193333D01*
X56041667Y-44160000D01*
X56058333Y-44126667D01*
X56091667Y-44110000D01*
X56175000Y-44110000D01*
X56208333Y-44093333D01*
X56358334Y-44226667D02*
X56391667Y-44243333D01*
X56458334Y-44243333D01*
X56491667Y-44226667D01*
X56508334Y-44193333D01*
X56508334Y-44176667D01*
X56491667Y-44143333D01*
X56458334Y-44126667D01*
X56408334Y-44126667D01*
X56375000Y-44110000D01*
X56358334Y-44076667D01*
X56358334Y-44060000D01*
X56375000Y-44026667D01*
X56408334Y-44010000D01*
X56458334Y-44010000D01*
X56491667Y-44026667D01*
X56658333Y-44010000D02*
X56658333Y-44360000D01*
X56658333Y-44026667D02*
X56691667Y-44010000D01*
X56758333Y-44010000D01*
X56791667Y-44026667D01*
X56808333Y-44043333D01*
X56825000Y-44076667D01*
X56825000Y-44176667D01*
X56808333Y-44210000D01*
X56791667Y-44226667D01*
X56758333Y-44243333D01*
X56691667Y-44243333D01*
X56658333Y-44226667D01*
X56975000Y-44243333D02*
X56975000Y-44010000D01*
X56975000Y-43893333D02*
X56958334Y-43910000D01*
X56975000Y-43926667D01*
X56991667Y-43910000D01*
X56975000Y-43893333D01*
X56975000Y-43926667D01*
X57325001Y-43910000D02*
X57291667Y-43893333D01*
X57241667Y-43893333D01*
X57191667Y-43910000D01*
X57158334Y-43943333D01*
X57141667Y-43976667D01*
X57125001Y-44043333D01*
X57125001Y-44093333D01*
X57141667Y-44160000D01*
X57158334Y-44193333D01*
X57191667Y-44226667D01*
X57241667Y-44243333D01*
X57275001Y-44243333D01*
X57325001Y-44226667D01*
X57341667Y-44210000D01*
X57341667Y-44093333D01*
X57275001Y-44093333D01*
X57458334Y-43893333D02*
X57541667Y-44243333D01*
X57608334Y-43993333D01*
X57675001Y-44243333D01*
X57758334Y-43893333D01*
X58125001Y-44010000D02*
X58208334Y-44243333D01*
X58291668Y-44010000D01*
X58608335Y-44243333D02*
X58408335Y-44243333D01*
X58508335Y-44243333D02*
X58508335Y-43893333D01*
X58475001Y-43943333D01*
X58441668Y-43976667D01*
X58408335Y-43993333D01*
X58758334Y-44210000D02*
X58775001Y-44226667D01*
X58758334Y-44243333D01*
X58741668Y-44226667D01*
X58758334Y-44210000D01*
X58758334Y-44243333D01*
X58991668Y-43893333D02*
X59025001Y-43893333D01*
X59058335Y-43910000D01*
X59075001Y-43926667D01*
X59091668Y-43960000D01*
X59108335Y-44026667D01*
X59108335Y-44110000D01*
X59091668Y-44176667D01*
X59075001Y-44210000D01*
X59058335Y-44226667D01*
X59025001Y-44243333D01*
X58991668Y-44243333D01*
X58958335Y-44226667D01*
X58941668Y-44210000D01*
X58925001Y-44176667D01*
X58908335Y-44110000D01*
X58908335Y-44026667D01*
X58925001Y-43960000D01*
X58941668Y-43926667D01*
X58958335Y-43910000D01*
X58991668Y-43893333D01*
X54158332Y-44813333D02*
X54158332Y-44463333D01*
X54291666Y-44463333D01*
X54324999Y-44480000D01*
X54341666Y-44496667D01*
X54358332Y-44530000D01*
X54358332Y-44580000D01*
X54341666Y-44613333D01*
X54324999Y-44630000D01*
X54291666Y-44646667D01*
X54158332Y-44646667D01*
X54508332Y-44813333D02*
X54508332Y-44580000D01*
X54508332Y-44463333D02*
X54491666Y-44480000D01*
X54508332Y-44496667D01*
X54524999Y-44480000D01*
X54508332Y-44463333D01*
X54508332Y-44496667D01*
X54674999Y-44813333D02*
X54674999Y-44580000D01*
X54674999Y-44613333D02*
X54691666Y-44596667D01*
X54724999Y-44580000D01*
X54774999Y-44580000D01*
X54808333Y-44596667D01*
X54824999Y-44630000D01*
X54824999Y-44813333D01*
X54824999Y-44630000D02*
X54841666Y-44596667D01*
X54874999Y-44580000D01*
X54924999Y-44580000D01*
X54958333Y-44596667D01*
X54974999Y-44630000D01*
X54974999Y-44813333D01*
X55191666Y-44813333D02*
X55158333Y-44796667D01*
X55141666Y-44780000D01*
X55125000Y-44746667D01*
X55125000Y-44646667D01*
X55141666Y-44613333D01*
X55158333Y-44596667D01*
X55191666Y-44580000D01*
X55241666Y-44580000D01*
X55275000Y-44596667D01*
X55291666Y-44613333D01*
X55308333Y-44646667D01*
X55308333Y-44746667D01*
X55291666Y-44780000D01*
X55275000Y-44796667D01*
X55241666Y-44813333D01*
X55191666Y-44813333D01*
X55458333Y-44813333D02*
X55458333Y-44580000D01*
X55458333Y-44646667D02*
X55475000Y-44613333D01*
X55491667Y-44596667D01*
X55525000Y-44580000D01*
X55558333Y-44580000D01*
X55725000Y-44813333D02*
X55691667Y-44796667D01*
X55675000Y-44780000D01*
X55658334Y-44746667D01*
X55658334Y-44646667D01*
X55675000Y-44613333D01*
X55691667Y-44596667D01*
X55725000Y-44580000D01*
X55775000Y-44580000D01*
X55808334Y-44596667D01*
X55825000Y-44613333D01*
X55841667Y-44646667D01*
X55841667Y-44746667D01*
X55825000Y-44780000D01*
X55808334Y-44796667D01*
X55775000Y-44813333D01*
X55725000Y-44813333D01*
X55991667Y-44580000D02*
X55991667Y-44813333D01*
X55991667Y-44613333D02*
X56008334Y-44596667D01*
X56041667Y-44580000D01*
X56091667Y-44580000D01*
X56125001Y-44596667D01*
X56141667Y-44630000D01*
X56141667Y-44813333D01*
X56308334Y-44813333D02*
X56308334Y-44580000D01*
X56308334Y-44463333D02*
X56291668Y-44480000D01*
X56308334Y-44496667D01*
X56325001Y-44480000D01*
X56308334Y-44463333D01*
X56308334Y-44496667D01*
X56891668Y-44796667D02*
X56858335Y-44813333D01*
X56791668Y-44813333D01*
X56758335Y-44796667D01*
X56741668Y-44780000D01*
X56725002Y-44746667D01*
X56725002Y-44646667D01*
X56741668Y-44613333D01*
X56758335Y-44596667D01*
X56791668Y-44580000D01*
X56858335Y-44580000D01*
X56891668Y-44596667D01*
X57191668Y-44813333D02*
X57191668Y-44630000D01*
X57175002Y-44596667D01*
X57141668Y-44580000D01*
X57075002Y-44580000D01*
X57041668Y-44596667D01*
X57191668Y-44796667D02*
X57158335Y-44813333D01*
X57075002Y-44813333D01*
X57041668Y-44796667D01*
X57025002Y-44763333D01*
X57025002Y-44730000D01*
X57041668Y-44696667D01*
X57075002Y-44680000D01*
X57158335Y-44680000D01*
X57191668Y-44663333D01*
X57341669Y-44796667D02*
X57375002Y-44813333D01*
X57441669Y-44813333D01*
X57475002Y-44796667D01*
X57491669Y-44763333D01*
X57491669Y-44746667D01*
X57475002Y-44713333D01*
X57441669Y-44696667D01*
X57391669Y-44696667D01*
X57358335Y-44680000D01*
X57341669Y-44646667D01*
X57341669Y-44630000D01*
X57358335Y-44596667D01*
X57391669Y-44580000D01*
X57441669Y-44580000D01*
X57475002Y-44596667D01*
X57775002Y-44796667D02*
X57741668Y-44813333D01*
X57675002Y-44813333D01*
X57641668Y-44796667D01*
X57625002Y-44763333D01*
X57625002Y-44630000D01*
X57641668Y-44596667D01*
X57675002Y-44580000D01*
X57741668Y-44580000D01*
X57775002Y-44596667D01*
X57791668Y-44630000D01*
X57791668Y-44663333D01*
X57625002Y-44696667D01*
X58308335Y-44946667D02*
X58291669Y-44930000D01*
X58258335Y-44880000D01*
X58241669Y-44846667D01*
X58225002Y-44796667D01*
X58208335Y-44713333D01*
X58208335Y-44646667D01*
X58225002Y-44563333D01*
X58241669Y-44513333D01*
X58258335Y-44480000D01*
X58291669Y-44430000D01*
X58308335Y-44413333D01*
X58441668Y-44813333D02*
X58441668Y-44463333D01*
X58575002Y-44463333D01*
X58608335Y-44480000D01*
X58625002Y-44496667D01*
X58641668Y-44530000D01*
X58641668Y-44580000D01*
X58625002Y-44613333D01*
X58608335Y-44630000D01*
X58575002Y-44646667D01*
X58441668Y-44646667D01*
X58791668Y-44813333D02*
X58791668Y-44580000D01*
X58791668Y-44463333D02*
X58775002Y-44480000D01*
X58791668Y-44496667D01*
X58808335Y-44480000D01*
X58791668Y-44463333D01*
X58791668Y-44496667D01*
X59341669Y-44630000D02*
X59391669Y-44646667D01*
X59408336Y-44663333D01*
X59425002Y-44696667D01*
X59425002Y-44746667D01*
X59408336Y-44780000D01*
X59391669Y-44796667D01*
X59358336Y-44813333D01*
X59225002Y-44813333D01*
X59225002Y-44463333D01*
X59341669Y-44463333D01*
X59375002Y-44480000D01*
X59391669Y-44496667D01*
X59408336Y-44530000D01*
X59408336Y-44563333D01*
X59391669Y-44596667D01*
X59375002Y-44613333D01*
X59341669Y-44630000D01*
X59225002Y-44630000D01*
X59541669Y-44946667D02*
X59558336Y-44930000D01*
X59591669Y-44880000D01*
X59608336Y-44846667D01*
X59625002Y-44796667D01*
X59641669Y-44713333D01*
X59641669Y-44646667D01*
X59625002Y-44563333D01*
X59608336Y-44513333D01*
X59591669Y-44480000D01*
X59558336Y-44430000D01*
X59541669Y-44413333D01*
D13*
X54328571Y-33585714D02*
X54928571Y-33585714D01*
X54328571Y-33928571D01*
X54928571Y-33928571D01*
X54328571Y-34557142D02*
X54614286Y-34357142D01*
X54328571Y-34214285D02*
X54928571Y-34214285D01*
X54928571Y-34442857D01*
X54900000Y-34499999D01*
X54871429Y-34528571D01*
X54814286Y-34557142D01*
X54728571Y-34557142D01*
X54671429Y-34528571D01*
X54642857Y-34499999D01*
X54614286Y-34442857D01*
X54614286Y-34214285D01*
X54642857Y-35014285D02*
X54642857Y-34814285D01*
X54328571Y-34814285D02*
X54928571Y-34814285D01*
X54928571Y-35099999D01*
X54871429Y-35300000D02*
X54900000Y-35328571D01*
X54928571Y-35385714D01*
X54928571Y-35528571D01*
X54900000Y-35585714D01*
X54871429Y-35614285D01*
X54814286Y-35642857D01*
X54757143Y-35642857D01*
X54671429Y-35614285D01*
X54328571Y-35271428D01*
X54328571Y-35642857D01*
X54728571Y-36157143D02*
X54328571Y-36157143D01*
X54957143Y-36014286D02*
X54528571Y-35871429D01*
X54528571Y-36242857D01*
X54328571Y-36757143D02*
X54328571Y-36471429D01*
X54928571Y-36471429D01*
X54928571Y-37071429D02*
X54928571Y-37128572D01*
X54900000Y-37185715D01*
X54871429Y-37214286D01*
X54814286Y-37242857D01*
X54700000Y-37271429D01*
X54557143Y-37271429D01*
X54442857Y-37242857D01*
X54385714Y-37214286D01*
X54357143Y-37185715D01*
X54328571Y-37128572D01*
X54328571Y-37071429D01*
X54357143Y-37014286D01*
X54385714Y-36985715D01*
X54442857Y-36957143D01*
X54557143Y-36928572D01*
X54700000Y-36928572D01*
X54814286Y-36957143D01*
X54871429Y-36985715D01*
X54900000Y-37014286D01*
X54928571Y-37071429D01*
X54328571Y-37842858D02*
X54328571Y-37500001D01*
X54328571Y-37671429D02*
X54928571Y-37671429D01*
X54842857Y-37614286D01*
X54785714Y-37557144D01*
X54757143Y-37500001D01*
D11*
X63435714Y-35071429D02*
X63092857Y-35071429D01*
X63264285Y-35071429D02*
X63264285Y-34471429D01*
X63207142Y-34557143D01*
X63150000Y-34614286D01*
X63092857Y-34642857D01*
X63778571Y-34728571D02*
X63721429Y-34700000D01*
X63692857Y-34671429D01*
X63664286Y-34614286D01*
X63664286Y-34585714D01*
X63692857Y-34528571D01*
X63721429Y-34500000D01*
X63778571Y-34471429D01*
X63892857Y-34471429D01*
X63950000Y-34500000D01*
X63978571Y-34528571D01*
X64007143Y-34585714D01*
X64007143Y-34614286D01*
X63978571Y-34671429D01*
X63950000Y-34700000D01*
X63892857Y-34728571D01*
X63778571Y-34728571D01*
X63721429Y-34757143D01*
X63692857Y-34785714D01*
X63664286Y-34842857D01*
X63664286Y-34957143D01*
X63692857Y-35014286D01*
X63721429Y-35042857D01*
X63778571Y-35071429D01*
X63892857Y-35071429D01*
X63950000Y-35042857D01*
X63978571Y-35014286D01*
X64007143Y-34957143D01*
X64007143Y-34842857D01*
X63978571Y-34785714D01*
X63950000Y-34757143D01*
X63892857Y-34728571D01*
X60935714Y-35071429D02*
X60592857Y-35071429D01*
X60764285Y-35071429D02*
X60764285Y-34471429D01*
X60707142Y-34557143D01*
X60650000Y-34614286D01*
X60592857Y-34642857D01*
X61135714Y-34471429D02*
X61535714Y-34471429D01*
X61278571Y-35071429D01*
X60642857Y-45278571D02*
X60671428Y-45250000D01*
X60728571Y-45221429D01*
X60871428Y-45221429D01*
X60928571Y-45250000D01*
X60957142Y-45278571D01*
X60985714Y-45335714D01*
X60985714Y-45392857D01*
X60957142Y-45478571D01*
X60614285Y-45821429D01*
X60985714Y-45821429D01*
X61185714Y-45221429D02*
X61557143Y-45221429D01*
X61357143Y-45450000D01*
X61442857Y-45450000D01*
X61500000Y-45478571D01*
X61528571Y-45507143D01*
X61557143Y-45564286D01*
X61557143Y-45707143D01*
X61528571Y-45764286D01*
X61500000Y-45792857D01*
X61442857Y-45821429D01*
X61271429Y-45821429D01*
X61214286Y-45792857D01*
X61185714Y-45764286D01*
X63192857Y-45278571D02*
X63221428Y-45250000D01*
X63278571Y-45221429D01*
X63421428Y-45221429D01*
X63478571Y-45250000D01*
X63507142Y-45278571D01*
X63535714Y-45335714D01*
X63535714Y-45392857D01*
X63507142Y-45478571D01*
X63164285Y-45821429D01*
X63535714Y-45821429D01*
X64050000Y-45421429D02*
X64050000Y-45821429D01*
X63907143Y-45192857D02*
X63764286Y-45621429D01*
X64135714Y-45621429D01*
M02*
