G04 #@! TF.FileFunction,Copper,L2,Bot,Signal*
%FSLAX46Y46*%
G04 Gerber Fmt 4.6, Leading zero omitted, Abs format (unit mm)*
G04 Created by KiCad (PCBNEW 4.0.2-stable) date Lundi 30 mai 2016 15:25:38*
%MOMM*%
G01*
G04 APERTURE LIST*
%ADD10C,0.100000*%
%ADD11R,1.500000X1.250000*%
%ADD12R,1.727200X1.727200*%
%ADD13O,1.727200X1.727200*%
%ADD14C,0.889000*%
%ADD15C,0.254000*%
G04 APERTURE END LIST*
D10*
D11*
X55200000Y-35600000D03*
X57700000Y-35600000D03*
X55200000Y-40000000D03*
X57700000Y-40000000D03*
X55200000Y-44750000D03*
X57700000Y-44750000D03*
D12*
X61400000Y-36350000D03*
D13*
X63940000Y-36350000D03*
X61400000Y-38890000D03*
X63940000Y-38890000D03*
X61400000Y-41430000D03*
X63940000Y-41430000D03*
X61400000Y-43970000D03*
X63940000Y-43970000D03*
D14*
X59016700Y-43687400D03*
X58814200Y-42359300D03*
X59827400Y-40979800D03*
D15*
X59898800Y-36606300D02*
X55200000Y-36606300D01*
X60155100Y-36350000D02*
X59898800Y-36606300D01*
X61400000Y-36350000D02*
X60155100Y-36350000D01*
X55200000Y-35600000D02*
X55200000Y-36606300D01*
X55200000Y-40000000D02*
X55200000Y-36606300D01*
X55200000Y-43687400D02*
X59016700Y-43687400D01*
X55200000Y-44750000D02*
X55200000Y-43687400D01*
X55200000Y-43687400D02*
X55200000Y-40000000D01*
X63940000Y-38890000D02*
X62695100Y-38890000D01*
X57700000Y-40000000D02*
X58831300Y-40000000D01*
X58991300Y-40160000D02*
X58831300Y-40000000D01*
X57700000Y-35600000D02*
X58831300Y-35600000D01*
X62695100Y-38890000D02*
X62695000Y-38890000D01*
X59326300Y-35105000D02*
X58831300Y-35600000D01*
X62431900Y-35105000D02*
X59326300Y-35105000D01*
X62695000Y-35368100D02*
X62431900Y-35105000D01*
X62695000Y-38890000D02*
X62695000Y-35368100D01*
X59479400Y-40160000D02*
X58991300Y-40160000D01*
X59485400Y-40154000D02*
X59479400Y-40160000D01*
X60169500Y-40154000D02*
X59485400Y-40154000D01*
X60175500Y-40160000D02*
X60169500Y-40154000D01*
X61891900Y-40160000D02*
X60175500Y-40160000D01*
X62695000Y-39356900D02*
X61891900Y-40160000D01*
X62695000Y-38890000D02*
X62695000Y-39356900D01*
X58991300Y-42182200D02*
X58814200Y-42359300D01*
X58991300Y-40160000D02*
X58991300Y-42182200D01*
X59191300Y-44750000D02*
X57700000Y-44750000D01*
X59846300Y-44095000D02*
X59191300Y-44750000D01*
X59846300Y-43319200D02*
X59846300Y-44095000D01*
X58886400Y-42359300D02*
X59846300Y-43319200D01*
X58814200Y-42359300D02*
X58886400Y-42359300D01*
X63940000Y-43970000D02*
X62695100Y-43970000D01*
X59827400Y-41620100D02*
X59827400Y-40979800D01*
X60932400Y-42725100D02*
X59827400Y-41620100D01*
X61917100Y-42725100D02*
X60932400Y-42725100D01*
X62695100Y-43503100D02*
X61917100Y-42725100D01*
X62695100Y-43970000D02*
X62695100Y-43503100D01*
M02*
